<?xml version="1.0" encoding="utf-8"?>
<!-- Generator: Adobe Illustrator 22.1.0, SVG Export Plug-In . SVG Version: 6.00 Build 0)  -->
<svg version="1.1" id="Layer_1" xmlns="http://www.w3.org/2000/svg" xmlns:xlink="http://www.w3.org/1999/xlink" x="0px" y="0px"
	 viewBox="0 0 31 33" style="enable-background:new 0 0 31 33;" xml:space="preserve">
<style type="text/css">

	.st1{fill:#FFFFFF;stroke:#000000;stroke-width:0.25;stroke-miterlimit:10;}
</style>
<g class="st0">
	<circle class="st1" cx="24.4" cy="25.4" r="2.4"/>
</g>
<path class="st1" d="M18.7,26.2c0,0,2.6-0.4,2.8,2.4c0,0,0,2.6-2.8,2.4c0,0,1.9-0.2,2-2.4C20.7,28.6,20.8,26.6,18.7,26.2z"/>
<path class="st1" d="M13.1,26.8c0,0,2.7-0.5,2.9,2.4c0,0,0,2.6-2.9,2.4c0,0,1.9-0.5,1.9-2.4C15.1,29.1,15.1,27.2,13.1,26.8z"/>
<path class="st1" d="M7.6,24.7c0,0,3-1,3.3,2.2c0,0-0.1,3.1-3.3,2.2c0,0,1.5-0.6,1.5-2.2C9.1,26.9,9.2,25.4,7.6,24.7z"/>
<path class="st1" d="M3.2,20.1c0,0,0.6-0.4,1.2-0.3c0,0,2.3,0,2.4,2.4c0,0,0.1,2.1-2.4,2.4c0,0-0.8-0.1-1.3-0.4c0,0,1.1-0.7,1.1-2
	C4.3,22.2,4.5,21,3.2,20.1z"/>
<path class="st1" d="M2,14.4c0,0,0.7-0.8,1.8-0.8c0,0,2.3,0,2.4,2.4c0,0,0.1,2.2-2.4,2.4c0,0-0.9,0-1.8-0.8C2,17.5,3.3,16,2,14.4z"
	/>
<g class="st0">
	<circle class="st1" cx="6.6" cy="10.1" r="2.4"/>
</g>
<path class="st1" d="M9.8,5c0,0,0.7-0.8,1.8-0.8c0,0,2.3,0,2.4,2.4c0,0,0.1,2.2-2.4,2.4c0,0-0.9,0-1.8-0.8C9.8,8.1,11.1,6.6,9.8,5z"
	/>
<path class="st1" d="M16.9,4c0,0,0.6-0.4,1.2-0.3c0,0,2.3,0,2.4,2.4c0,0,0.1,2.1-2.4,2.4c0,0-0.8-0.1-1.3-0.4c0,0,1.1-0.7,1.1-2
	C18,6.1,18.2,4.9,16.9,4z"/>
<path class="st1" d="M22.2,6.3c0,0,3-1,3.3,2.2c0,0-0.1,3.1-3.3,2.2c0,0,1.5-0.6,1.5-2.2C23.7,8.5,23.9,6.9,22.2,6.3z"/>
<path class="st1" d="M26,11.2c0,0,2.7-0.5,2.9,2.4c0,0,0,2.6-2.9,2.4c0,0,1.9-0.5,1.9-2.4C27.9,13.5,27.9,11.6,26,11.2z"/>
<path class="st1" d="M26.4,17.9c0,0,2.6-0.4,2.8,2.4c0,0,0,2.6-2.8,2.4c0,0,1.9-0.2,2-2.4C28.4,20.3,28.4,18.3,26.4,17.9z"/>
</svg>
