<?xml version="1.0" encoding="utf-8"?>
<!-- Generator: Adobe Illustrator 22.1.0, SVG Export Plug-In . SVG Version: 6.00 Build 0)  -->
<svg version="1.1" id="Layer_1" xmlns="http://www.w3.org/2000/svg" xmlns:xlink="http://www.w3.org/1999/xlink" x="0px" y="0px"
	 viewBox="0 0 78.7 61.8" style="enable-background:new 0 0 78.7 61.8;" xml:space="preserve">
<style type="text/css">
	.st0{opacity:0.76;}
	.st0{fill:none;stroke:#CCAE1D;stroke-miterlimit:10;}
</style>
<polygon class="st0" points="59.7,45.3 59.5,44.7 59.6,44.2 59.2,44.4 58.6,44.1 58.8,44.7 58.7,45.2 59.2,45 "/>
<polygon class="st0" points="58.1,52.8 57.9,52.2 58.1,51.8 57.6,51.9 57,51.7 57.3,52.2 57.1,52.7 57.6,52.5 "/>
<polygon class="st0" points="54.8,49.2 54.5,48.6 54.7,48.2 54.2,48.3 53.7,48.1 53.9,48.6 53.7,49.1 54.2,48.9 "/>
<polygon class="st0" points="50.3,45.5 50.1,45 50.3,44.5 49.8,44.7 49.3,44.4 49.5,45 49.3,45.4 49.8,45.3 "/>
<polygon class="st0" points="51,60.3 51.3,59.9 51.7,59.9 51.4,59.6 51.4,59.2 51.1,59.5 50.7,59.6 51,59.8 "/>
<polygon class="st0" points="56.9,57.1 57.2,56.8 57.6,56.7 57.3,56.4 57.3,56 57,56.3 56.7,56.4 56.9,56.7 "/>
<polygon class="st0" points="49.7,54.8 50,54.4 50.4,54.4 50.1,54.1 50.1,53.7 49.8,54 49.5,54.1 49.7,54.3 "/>
<polygon class="st0" points="54,45.7 54.3,45.4 54.7,45.4 54.4,45.1 54.4,44.7 54.1,45 53.8,45 54,45.3 "/>
<polygon class="st0" points="77.2,31.8 77,31.3 77.1,30.8 76.7,31 76.1,30.7 76.4,31.3 76.2,31.7 76.7,31.6 "/>
<polygon class="st0" points="68.5,46.9 68.8,46.5 69.2,46.5 68.9,46.2 68.9,45.8 68.6,46.1 68.2,46.2 68.5,46.4 "/>
<polygon class="st0" points="74.5,43.7 74.8,43.3 75.1,43.3 74.9,43 74.8,42.6 74.5,42.9 74.2,43 74.4,43.2 "/>
<polygon class="st0" points="67.2,41.4 67.5,41 67.9,41 67.6,40.7 67.6,40.3 67.3,40.6 67,40.7 67.2,40.9 "/>
<polygon class="st0" points="74.9,35.1 75.2,34.7 75.6,34.7 75.3,34.4 75.3,34 75,34.3 74.6,34.3 74.9,34.6 "/>
<polygon class="st0" points="71.5,32.3 71.8,32 72.2,31.9 71.9,31.7 71.9,31.2 71.6,31.6 71.3,31.6 71.5,31.9 "/>
<polygon class="st0" points="71.5,40 71.8,39.6 72.2,39.6 71.9,39.3 71.9,38.9 71.6,39.2 71.3,39.3 71.5,39.5 "/>
<polygon class="st0" points="67.7,36.8 68,36.4 68.4,36.4 68.1,36.1 68.1,35.7 67.8,36 67.4,36.1 67.7,36.4 "/>
<polygon class="st0" points="74.7,48.6 74.9,49.1 74.8,49.6 75.2,49.5 75.8,49.7 75.5,49.2 75.7,48.7 75.2,48.8 "/>
<polygon class="st0" points="72.9,56.4 73.1,57 72.9,57.4 73.4,57.3 73.9,57.5 73.7,57 73.9,56.5 73.4,56.7 "/>
<polygon class="st0" points="77.5,55.5 77.2,55.8 76.8,55.9 77,56.1 77.1,56.6 77.4,56.2 77.7,56.2 77.5,55.9 "/>
<polygon class="st0" points="51.8,33.9 52.4,33.7 52.8,33.9 52.7,33.4 52.9,32.9 52.4,33.1 51.9,32.9 52.1,33.4 "/>
<polygon class="st0" points="56.1,39 56.6,38.8 57.1,38.9 56.9,38.5 57.2,37.9 56.6,38.1 56.2,38 56.3,38.4 "/>
<polygon class="st0" points="63.4,31.2 63.9,31 64.4,31.2 64.2,30.7 64.5,30.2 63.9,30.4 63.5,30.2 63.6,30.7 "/>
<polygon class="st0" points="60.4,38.3 60.7,38.6 60.8,38.9 61.1,38.7 61.5,38.6 61.2,38.4 61.1,38 60.8,38.3 "/>
<polygon class="st0" points="63.1,34.9 63.5,35.2 63.5,35.6 63.8,35.3 64.2,35.3 63.9,35 63.8,34.6 63.6,34.9 "/>
<polygon class="st0" points="58.7,31.1 59,31.4 59.1,31.7 59.3,31.5 59.8,31.4 59.4,31.1 59.4,30.8 59.1,31 "/>
<polygon class="st0" points="50.5,40 49.9,40.2 49.5,40 49.6,40.5 49.4,41 49.9,40.8 50.4,41 50.2,40.5 "/>
<polygon class="st0" points="67.9,49.6 67.3,49.8 66.8,49.6 67,50.1 66.7,50.6 67.3,50.4 67.7,50.6 67.6,50.1 "/>
<polygon class="st0" points="68.8,54.3 68.2,54.5 67.8,54.3 67.9,54.8 67.7,55.3 68.2,55.1 68.7,55.3 68.6,54.8 "/>
<polygon class="st0" points="61,57.9 60.4,58.1 60,57.9 60.1,58.4 59.8,58.9 60.4,58.7 60.9,58.9 60.7,58.4 "/>
<polygon class="st0" points="65.6,58 65.3,57.7 65.3,57.4 65,57.6 64.6,57.7 64.9,57.9 64.9,58.3 65.2,58 "/>
<polygon class="st0" points="12.6,44.9 12.4,44.3 12.5,43.8 12,44 11.5,43.7 11.7,44.3 11.6,44.7 12,44.6 "/>
<polygon class="st0" points="11,52.4 10.8,51.8 10.9,51.4 10.5,51.5 9.9,51.3 10.2,51.8 10,52.3 10.5,52.1 "/>
<polygon class="st0" points="7.6,48.8 7.4,48.2 7.6,47.8 7.1,47.9 6.6,47.7 6.8,48.2 6.6,48.7 7.1,48.5 "/>
<polygon class="st0" points="3.2,45.1 3,44.6 3.2,44.1 2.7,44.3 2.2,44 2.4,44.6 2.2,45 2.7,44.9 "/>
<polygon class="st0" points="3.9,59.9 4.2,59.5 4.6,59.5 4.3,59.2 4.3,58.8 4,59.1 3.6,59.2 3.9,59.4 "/>
<polygon class="st0" points="9.8,56.7 10.1,56.3 10.5,56.3 10.2,56 10.2,55.6 9.9,55.9 9.6,56 9.8,56.3 "/>
<polygon class="st0" points="2.6,54.4 2.9,54 3.3,54 3,53.7 3,53.3 2.7,53.6 2.3,53.7 2.6,53.9 "/>
<polygon class="st0" points="6.9,45.3 7.2,45 7.6,45 7.3,44.7 7.3,44.2 7,44.6 6.7,44.6 6.9,44.9 "/>
<polygon class="st0" points="30.1,31.4 29.9,30.9 30,30.4 29.6,30.6 29,30.3 29.3,30.9 29.1,31.3 29.6,31.2 "/>
<polygon class="st0" points="21.4,46.5 21.7,46.1 22.1,46.1 21.8,45.8 21.8,45.4 21.5,45.7 21.1,45.7 21.4,46 "/>
<polygon class="st0" points="27.4,43.3 27.6,42.9 28,42.9 27.7,42.6 27.7,42.2 27.4,42.5 27.1,42.6 27.3,42.8 "/>
<polygon class="st0" points="20.1,41 20.4,40.6 20.8,40.6 20.5,40.3 20.5,39.9 20.2,40.2 19.9,40.3 20.1,40.5 "/>
<polygon class="st0" points="27.8,34.6 28.1,34.3 28.5,34.3 28.2,34 28.2,33.6 27.9,33.9 27.5,33.9 27.8,34.2 "/>
<polygon class="st0" points="24.4,31.9 24.7,31.6 25.1,31.5 24.8,31.3 24.8,30.8 24.5,31.2 24.2,31.2 24.4,31.5 "/>
<polygon class="st0" points="24.4,39.6 24.7,39.2 25.1,39.2 24.8,38.9 24.8,38.5 24.5,38.8 24.2,38.9 24.4,39.1 "/>
<polygon class="st0" points="20.6,36.4 20.9,36 21.2,36 21,35.7 21,35.3 20.7,35.6 20.3,35.7 20.6,35.9 "/>
<polygon class="st0" points="27.6,48.2 27.8,48.7 27.7,49.2 28.1,49.1 28.7,49.3 28.4,48.7 28.6,48.3 28.1,48.4 "/>
<polygon class="st0" points="25.8,56 26,56.6 25.8,57 26.3,56.9 26.8,57.1 26.6,56.6 26.8,56.1 26.3,56.3 "/>
<polygon class="st0" points="30.3,55.1 30,55.4 29.7,55.5 29.9,55.7 29.9,56.2 30.2,55.8 30.6,55.8 30.4,55.5 "/>
<polygon class="st0" points="4.7,33.5 5.3,33.3 5.7,33.5 5.6,33 5.8,32.5 5.3,32.7 4.8,32.5 5,33 "/>
<polygon class="st0" points="9,38.6 9.5,38.3 10,38.5 9.8,38 10.1,37.5 9.5,37.7 9.1,37.6 9.2,38 "/>
<polygon class="st0" points="16.3,30.8 16.8,30.6 17.3,30.8 17.1,30.3 17.4,29.8 16.8,30 16.4,29.8 16.5,30.3 "/>
<polygon class="st0" points="13.3,37.9 13.6,38.2 13.7,38.5 13.9,38.3 14.4,38.2 14,37.9 14,37.6 13.7,37.8 "/>
<polygon class="st0" points="16,34.5 16.4,34.8 16.4,35.2 16.7,34.9 17.1,34.9 16.8,34.6 16.7,34.2 16.5,34.5 "/>
<polygon class="st0" points="11.6,30.7 11.9,31 12,31.3 12.2,31.1 12.7,31 12.3,30.7 12.3,30.4 12,30.6 "/>
<polygon class="st0" points="3.4,39.6 2.8,39.8 2.4,39.6 2.5,40.1 2.3,40.6 2.8,40.4 3.3,40.6 3.1,40.1 "/>
<polygon class="st0" points="20.7,49.2 20.2,49.4 19.7,49.2 19.9,49.7 19.6,50.2 20.2,50 20.6,50.2 20.5,49.7 "/>
<polygon class="st0" points="21.7,53.9 21.1,54.1 20.7,53.9 20.8,54.4 20.6,54.9 21.1,54.7 21.6,54.9 21.4,54.4 "/>
<polygon class="st0" points="13.9,57.5 13.3,57.7 12.8,57.5 13,58 12.7,58.5 13.3,58.3 13.7,58.5 13.6,58 "/>
<polygon class="st0" points="18.5,57.6 18.2,57.3 18.2,57 17.9,57.2 17.4,57.2 17.8,57.5 17.8,57.9 18.1,57.6 "/>
<polygon class="st0" points="36.8,12.5 36.5,11.9 36.7,11.5 36.2,11.6 35.7,11.4 35.9,11.9 35.8,12.4 36.2,12.2 "/>
<polygon class="st0" points="35.2,20 35,19.5 35.1,19 34.7,19.2 34.1,18.9 34.4,19.5 34.2,19.9 34.7,19.8 "/>
<polygon class="st0" points="31.8,16.4 31.6,15.9 31.8,15.4 31.3,15.6 30.8,15.3 31,15.9 30.8,16.3 31.3,16.2 "/>
<polygon class="st0" points="27.4,12.8 27.2,12.2 27.4,11.7 26.9,11.9 26.4,11.6 26.6,12.2 26.4,12.7 26.9,12.5 "/>
<polygon class="st0" points="28.1,27.5 28.4,27.2 28.7,27.1 28.5,26.9 28.5,26.4 28.2,26.8 27.8,26.8 28.1,27.1 "/>
<polygon class="st0" points="34,24.3 34.3,24 34.7,23.9 34.4,23.7 34.4,23.2 34.1,23.6 33.8,23.6 34,23.9 "/>
<polygon class="st0" points="26.8,22 27.1,21.7 27.5,21.6 27.2,21.4 27.2,20.9 26.9,21.3 26.5,21.3 26.8,21.6 "/>
<polygon class="st0" points="31.1,13 31.4,12.6 31.8,12.6 31.5,12.3 31.5,11.9 31.2,12.2 30.8,12.3 31.1,12.5 "/>
<polygon class="st0" points="65,22.2 64.8,21.7 65,21.2 64.5,21.4 63.9,21.1 64.2,21.7 64,22.1 64.5,22 "/>
<polygon class="st0" points="45.6,14.1 45.9,13.7 46.3,13.7 46,13.4 46,13 45.7,13.3 45.3,13.4 45.6,13.7 "/>
<polygon class="st0" points="53,9.7 53.3,9.4 53.7,9.4 53.4,9.1 53.4,8.7 53.1,9 52.8,9 53,9.3 "/>
<polygon class="st0" points="44.3,8.6 44.6,8.3 45,8.2 44.7,8 44.7,7.5 44.4,7.9 44.1,7.9 44.3,8.2 "/>
<polygon class="st0" points="52,2.3 52.3,1.9 52.6,1.9 52.4,1.6 52.4,1.2 52.1,1.5 51.7,1.6 52,1.8 "/>
<polygon class="st0" points="39.2,18.7 39.5,18.3 39.8,18.3 39.6,18 39.6,17.6 39.3,17.9 38.9,18 39.2,18.2 "/>
<polygon class="st0" points="48.6,7.2 48.9,6.9 49.3,6.8 49,6.6 49,6.1 48.7,6.5 48.4,6.5 48.6,6.8 "/>
<polygon class="st0" points="44.8,4 45.1,3.7 45.4,3.6 45.2,3.4 45.2,2.9 44.9,3.3 44.5,3.3 44.8,3.6 "/>
<polygon class="st0" points="51.8,15.8 52,16.4 51.8,16.8 52.3,16.7 52.8,17 52.6,16.4 52.8,15.9 52.3,16.1 "/>
<polygon class="st0" points="50,23.6 50.2,24.2 50,24.6 50.5,24.5 51,24.8 50.8,24.2 51,23.8 50.5,23.9 "/>
<polygon class="st0" points="54.5,22.7 54.2,23.1 53.9,23.1 54.1,23.4 54.1,23.8 54.4,23.5 54.8,23.4 54.5,23.2 "/>
<polygon class="st0" points="24.1,4.2 24.6,3.9 25.1,4.1 24.9,3.6 25.2,3.1 24.6,3.3 24.2,3.2 24.3,3.6 "/>
<polygon class="st0" points="33.2,6.2 33.7,6 34.2,6.2 34,5.7 34.3,5.2 33.7,5.4 33.3,5.2 33.4,5.7 "/>
<polygon class="st0" points="40.4,11.8 41,11.6 41.5,11.7 41.3,11.3 41.6,10.7 41,11 40.6,10.8 40.7,11.3 "/>
<polygon class="st0" points="37.5,5.5 37.8,5.8 37.9,6.2 38.1,5.9 38.6,5.9 38.2,5.6 38.2,5.2 37.9,5.5 "/>
<polygon class="st0" points="40.2,2.1 40.6,2.4 40.6,2.8 40.9,2.5 41.3,2.5 41,2.2 40.9,1.9 40.7,2.1 "/>
<polygon class="st0" points="29,3.2 29.4,3.5 29.4,3.8 29.7,3.6 30.1,3.5 29.8,3.2 29.7,2.9 29.5,3.1 "/>
<polygon class="st0" points="27.6,7.2 27,7.4 26.6,7.3 26.7,7.7 26.5,8.3 27,8.1 27.5,8.2 27.3,7.7 "/>
<polygon class="st0" points="44.9,16.8 44.4,17 43.9,16.9 44.1,17.4 43.8,17.9 44.4,17.7 44.8,17.8 44.7,17.4 "/>
<polygon class="st0" points="45.9,21.5 45.3,21.7 44.9,21.5 45,22 44.8,22.5 45.3,22.3 45.8,22.5 45.6,22 "/>
<polygon class="st0" points="38.1,25.1 37.5,25.3 37,25.1 37.2,25.6 36.9,26.2 37.5,25.9 37.9,26.1 37.8,25.6 "/>
<polygon class="st0" points="42.7,25.3 42.4,25 42.3,24.6 42.1,24.9 41.6,24.9 42,25.2 42,25.5 42.3,25.3 "/>
<polygon class="st0" points="8.9,18 8.4,18.3 7.9,18.1 8.1,18.6 7.9,19.1 8.4,18.9 8.9,19 8.7,18.5 "/>
<polygon class="st0" points="16.5,19.2 16,19.4 15.5,19.3 15.7,19.8 15.5,20.3 16,20 16.5,20.2 16.3,19.7 "/>
<polygon class="st0" points="13.1,22.7 12.6,23 12.1,22.8 12.3,23.3 12.1,23.8 12.6,23.6 13.1,23.7 12.9,23.3 "/>
<polygon class="st0" points="9.7,27.3 9.1,27.6 8.7,27.4 8.9,27.9 8.6,28.4 9.2,28.2 9.6,28.3 9.5,27.9 "/>
<polygon class="st0" points="24.4,25.9 24,25.6 24,25.3 23.7,25.5 23.3,25.6 23.6,25.8 23.7,26.2 23.9,25.9 "/>
<polygon class="st0" points="20.9,20.1 20.5,19.8 20.5,19.5 20.2,19.8 19.8,19.8 20.1,20.1 20.2,20.4 20.5,20.2 "/>
<polygon class="st0" points="19,27.5 18.6,27.2 18.6,26.8 18.3,27.1 17.9,27.1 18.2,27.4 18.3,27.8 18.5,27.5 "/>
<polygon class="st0" points="9.7,23.6 9.4,23.4 9.3,23 9,23.3 8.6,23.3 9,23.6 9,23.9 9.3,23.7 "/>
<polygon class="st0" points="36.8,49.1 36.2,49.4 35.8,49.2 35.9,49.7 35.7,50.2 36.3,50 36.7,50.1 36.5,49.6 "/>
<polygon class="st0" points="10.1,9.1 9.7,8.8 9.7,8.5 9.4,8.7 9,8.8 9.3,9.1 9.4,9.4 9.6,9.1 "/>
<polygon class="st0" points="6.6,3.3 6.2,3.1 6.2,2.7 5.9,3 5.5,3 5.8,3.3 5.9,3.6 6.1,3.4 "/>
<polygon class="st0" points="4.7,10.7 4.3,10.4 4.2,10 4,10.3 3.6,10.3 3.9,10.6 4,11 4.2,10.7 "/>
<polygon class="st0" points="32.4,37.7 32,37.4 32,37 31.7,37.3 31.3,37.4 31.6,37.6 31.7,38 32,37.7 "/>
<polygon class="st0" points="45.5,44.2 45.1,43.9 45.1,43.5 44.8,43.8 44.4,43.8 44.7,44.1 44.8,44.5 45.1,44.2 "/>
<polygon class="st0" points="3,6.4 2.7,6.2 2.6,5.8 2.4,6.1 1.9,6.1 2.3,6.4 2.3,6.7 2.6,6.5 "/>
<polygon class="st0" points="17.7,45.9 17.3,45.7 17.3,45.3 17,45.6 16.6,45.6 16.9,45.9 17,46.2 17.2,46 "/>
<polygon class="st0" points="11.5,2.8 12,2.6 12.5,2.7 12.3,2.3 12.5,1.7 12,2 11.5,1.8 11.7,2.3 "/>
<polygon class="st0" points="19.4,4.3 19.9,4 20.4,4.2 20.2,3.7 20.5,3.2 19.9,3.4 19.5,3.2 19.6,3.7 "/>
<polygon class="st0" points="14.9,14.4 15.3,14.6 15.3,15 15.6,14.7 16,14.7 15.7,14.4 15.6,14.1 15.4,14.3 "/>
<polygon class="st0" points="16,52.2 15.8,51.7 15.9,51.2 15.5,51.4 14.9,51.1 15.2,51.7 15,52.2 15.5,52 "/>
<polygon class="st0" points="2.9,21.9 2.6,21.4 2.7,20.9 2.3,21.1 1.7,20.9 2,21.4 1.8,21.9 2.3,21.7 "/>
<polygon class="st0" points="42.8,35.8 42.5,35.3 42.6,34.8 42.2,35 41.6,34.8 41.9,35.3 41.7,35.8 42.2,35.6 "/>
<polygon class="st0" points="1.9,17.6 2.2,17.3 2.5,17.2 2.3,17 2.2,16.5 2,16.9 1.6,17 1.9,17.2 "/>
<polygon class="st0" points="7.7,14.9 8,14.5 8.3,14.5 8.1,14.2 8,13.8 7.8,14.1 7.4,14.2 7.7,14.4 "/>
<polygon class="st0" points="46.1,29.6 46.4,29.3 46.7,29.2 46.5,29 46.4,28.5 46.1,28.9 45.8,29 46.1,29.2 "/>
<polygon class="st0" points="4.1,27.5 4.4,28 4.3,28.5 4.7,28.3 5.3,28.5 5,28 5.2,27.5 4.7,27.7 "/>
<polygon class="st0" points="12.8,9.6 13.1,10.2 12.9,10.6 13.4,10.5 13.9,10.7 13.7,10.1 13.8,9.7 13.4,9.8 "/>
<polygon class="st0" points="17.4,8.4 17.7,9 17.5,9.4 18,9.3 18.6,9.5 18.3,8.9 18.5,8.5 18,8.7 "/>
<polygon class="st0" points="21.5,16.1 21.7,16.6 21.6,17.1 22,16.9 22.6,17.1 22.3,16.6 22.5,16.1 22,16.3 "/>
<polygon class="st0" points="21.4,11.4 21.1,11.7 20.7,11.8 21,12.1 21.1,12.5 21.3,12.1 21.7,12.1 21.4,11.8 "/>
<polygon class="st0" points="71.6,11.8 72.2,11.6 72.6,11.7 72.5,11.3 72.8,10.7 72.2,11 71.8,10.8 71.9,11.3 "/>
<polygon class="st0" points="64.1,7.5 64.7,7.3 65.2,7.5 65,7 65.3,6.5 64.7,6.7 64.3,6.5 64.4,7 "/>
<polygon class="st0" points="67.8,4.2 68.4,4 68.9,4.2 68.7,3.7 69,3.2 68.4,3.4 68,3.2 68.1,3.7 "/>
<polygon class="st0" points="63.1,43.2 63.7,43 64.2,43.2 64,42.7 64.3,42.2 63.7,42.4 63.3,42.2 63.4,42.7 "/>
<polygon class="st0" points="56.5,3.6 56.8,3.9 56.9,4.3 57.1,4 57.6,4 57.3,3.7 57.2,3.4 56.9,3.6 "/>
<polygon class="st0" points="59.9,6.2 60.2,6.5 60.2,6.9 60.5,6.6 61,6.6 60.6,6.3 60.6,5.9 60.3,6.2 "/>
<polygon class="st0" points="62.6,2.7 62.9,3 63,3.4 63.2,3.1 63.7,3.1 63.3,2.8 63.3,2.5 63,2.7 "/>
<polygon class="st0" points="72.3,6.7 72.7,7 72.7,7.3 73,7.1 73.4,7.1 73.1,6.8 73,6.4 72.8,6.7 "/>
<polygon class="st0" points="61.3,49.7 61.9,49.5 62.3,49.6 62.2,49.2 62.4,48.6 61.9,48.8 61.4,48.7 61.6,49.1 "/>
<polygon class="st0" points="69.8,18.1 70.1,18.4 70.2,18.7 70.4,18.5 70.9,18.5 70.5,18.2 70.5,17.8 70.2,18.1 "/>
<polygon class="st0" points="72.8,24.1 73.1,24.4 73.2,24.7 73.4,24.5 73.9,24.5 73.6,24.2 73.5,23.8 73.2,24.1 "/>
<polygon class="st0" points="75.3,16.9 75.6,17.2 75.7,17.6 76,17.3 76.4,17.3 76.1,17 76,16.7 75.8,16.9 "/>
<polygon class="st0" points="62.8,54 63.2,54.3 63.2,54.7 63.5,54.5 63.9,54.4 63.6,54.1 63.5,53.8 63.3,54 "/>
<polygon class="st0" points="36.4,31.5 36.7,31.8 36.8,32.2 37,31.9 37.5,31.9 37.1,31.6 37.1,31.3 36.8,31.5 "/>
<polygon class="st0" points="76.6,21.3 76.9,21.6 77,21.9 77.2,21.7 77.7,21.7 77.3,21.4 77.3,21 77,21.3 "/>
<polygon class="st0" points="38,42.4 38.4,42.7 38.4,43.1 38.7,42.8 39.1,42.8 38.8,42.5 38.7,42.1 38.5,42.4 "/>
<polygon class="st0" points="67.9,24.2 67.3,24.4 66.9,24.2 67,24.7 66.7,25.2 67.3,25 67.7,25.2 67.6,24.7 "/>
<polygon class="st0" points="60.1,22.1 59.6,22.3 59.1,22.1 59.2,22.6 59,23.1 59.5,22.9 60,23.1 59.9,22.7 "/>
<polygon class="st0" points="60.9,26.7 60.6,26.4 60.6,26.1 60.3,26.3 59.9,26.3 60.2,26.6 60.2,27 60.5,26.7 "/>
<polygon class="st0" points="67.3,9.2 67.5,9.7 67.4,10.2 67.8,10.1 68.4,10.3 68.2,9.8 68.3,9.3 67.9,9.4 "/>
<polygon class="st0" points="53.2,27.9 53.5,28.5 53.3,29 53.7,28.8 54.3,29.1 54.1,28.5 54.2,28.1 53.8,28.2 "/>
<polygon class="st0" points="34.7,57.9 34.9,58.5 34.7,59 35.2,58.8 35.7,59.1 35.5,58.5 35.7,58.1 35.2,58.2 "/>
<polygon class="st0" points="76.9,11.7 76.6,12 76.2,12 76.5,12.3 76.5,12.7 76.8,12.4 77.1,12.4 76.9,12.1 "/>
<polygon class="st0" points="46.9,49.2 46.6,49.5 46.3,49.5 46.5,49.8 46.5,50.3 46.8,49.9 47.2,49.9 46.9,49.6 "/>
<polygon class="st0" points="46.5,58 46.2,58.3 45.8,58.3 46,58.6 46.1,59.1 46.4,58.7 46.7,58.7 46.5,58.4 "/>
<polygon class="st0" points="76.6,4.2 76.4,3.7 76.6,3.2 76.1,3.3 75.6,3.1 75.8,3.6 75.6,4.1 76.1,4 "/>
<polygon class="st0" points="67.8,15.4 67.6,14.9 67.8,14.4 67.3,14.6 66.8,14.3 67,14.9 66.8,15.3 67.3,15.2 "/>
<polygon class="st0" points="62.4,18.1 62.2,17.6 62.4,17.1 61.9,17.3 61.4,17 61.6,17.6 61.4,18 61.9,17.9 "/>
<polygon class="st0" points="62.4,11.3 62.2,10.8 62.4,10.3 61.9,10.4 61.4,10.2 61.6,10.7 61.4,11.2 61.9,11.1 "/>
<polygon class="st0" points="58.7,14.9 59,14.5 59.4,14.5 59.1,14.2 59.1,13.8 58.8,14.1 58.5,14.2 58.7,14.4 "/>
<polygon class="st0" points="40.4,58.4 40.1,57.9 40.3,57.4 39.8,57.6 39.3,57.3 39.5,57.9 39.4,58.3 39.8,58.2 "/>
<polygon class="st0" points="-25.5,34.9 -25.7,34.3 -25.5,33.9 -26,34 -26.6,33.8 -26.3,34.3 -26.5,34.8 -26,34.7 "/>
<polygon class="st0" points="-28.8,31.3 -29.1,30.7 -28.9,30.3 -29.4,30.4 -29.9,30.2 -29.7,30.7 -29.9,31.2 -29.4,31 "/>
<polygon class="st0" points="-33.3,27.6 -33.5,27.1 -33.3,26.6 -33.8,26.8 -34.3,26.5 -34.1,27.1 -34.3,27.5 -33.8,27.4 "/>
<polygon class="st0" points="-32.6,42.4 -32.3,42 -31.9,42 -32.2,41.7 -32.2,41.3 -32.5,41.6 -32.9,41.7 -32.6,41.9 "/>
<polygon class="st0" points="42,53.3 42.3,53 42.6,53 42.4,52.7 42.4,52.3 42.1,52.6 41.7,52.6 42,52.9 "/>
<polygon class="st0" points="-33.9,36.9 -33.6,36.6 -33.2,36.5 -33.5,36.2 -33.5,35.8 -33.8,36.1 -34.1,36.2 -33.9,36.5 "/>
<polygon class="st0" points="-29.6,27.8 -29.3,27.5 -28.9,27.5 -29.2,27.2 -29.2,26.8 -29.5,27.1 -29.8,27.1 -29.6,27.4 "/>
<polygon class="st0" points="-6.4,13.9 -6.6,13.4 -6.5,12.9 -6.9,13.1 -7.5,12.8 -7.2,13.4 -7.4,13.8 -6.9,13.7 "/>
<polygon class="st0" points="35,54.2 35.3,53.9 35.7,53.9 35.4,53.6 35.4,53.2 35.1,53.5 34.7,53.5 35,53.8 "/>
<polygon class="st0" points="46.5,34.9 46.8,34.5 47.2,34.5 46.9,34.2 46.9,33.8 46.6,34.1 46.3,34.2 46.5,34.4 "/>
<polygon class="st0" points="-16.4,23.5 -16.1,23.1 -15.7,23.1 -16,22.8 -16,22.4 -16.3,22.7 -16.6,22.8 -16.4,23 "/>
<polygon class="st0" points="-8.7,17.2 -8.4,16.8 -8,16.8 -8.3,16.5 -8.3,16.1 -8.6,16.4 -9,16.5 -8.7,16.7 "/>
<polygon class="st0" points="-12.1,14.4 -11.8,14.1 -11.4,14 -11.7,13.8 -11.7,13.3 -12,13.7 -12.3,13.7 -12.1,14 "/>
<polygon class="st0" points="-12.1,22.1 -11.8,21.7 -11.4,21.7 -11.7,21.4 -11.7,21 -12,21.3 -12.3,21.4 -12.1,21.6 "/>
<polygon class="st0" points="-15.9,18.9 -15.6,18.6 -15.2,18.5 -15.5,18.2 -15.5,17.8 -15.8,18.1 -16.2,18.2 -15.9,18.5 "/>
<polygon class="st0" points="32.6,27.4 32.9,28 32.7,28.4 33.2,28.3 33.7,28.6 33.5,28 33.6,27.5 33.2,27.7 "/>
<polygon class="st0" points="36.4,36.9 36.6,37.4 36.4,37.9 36.9,37.7 37.4,38 37.2,37.4 37.4,37 36.9,37.1 "/>
<polygon class="st0" points="33.4,44.7 33.1,45 32.7,45 33,45.3 33,45.7 33.3,45.4 33.6,45.4 33.4,45.1 "/>
<polygon class="st0" points="-31.8,16 -31.2,15.8 -30.8,16 -30.9,15.5 -30.7,15 -31.2,15.2 -31.7,15 -31.5,15.5 "/>
<polygon class="st0" points="-27.5,21.1 -27,20.9 -26.5,21 -26.7,20.6 -26.4,20 -27,20.3 -27.4,20.1 -27.3,20.6 "/>
<polygon class="st0" points="-20.2,13.3 -19.7,13.1 -19.2,13.3 -19.4,12.8 -19.1,12.3 -19.7,12.5 -20.1,12.3 -20,12.8 "/>
<polygon class="st0" points="-23.2,20.4 -22.9,20.7 -22.8,21 -22.5,20.8 -22.1,20.8 -22.4,20.5 -22.5,20.1 -22.8,20.4 "/>
<polygon class="st0" points="-20.5,17 -20.1,17.3 -20.1,17.7 -19.8,17.4 -19.4,17.4 -19.7,17.1 -19.8,16.8 -20,17 "/>
<polygon class="st0" points="-24.9,13.2 -24.6,13.5 -24.5,13.8 -24.3,13.6 -23.8,13.5 -24.2,13.3 -24.2,12.9 -24.5,13.2 "/>
<polygon class="st0" points="-33.1,22.1 -33.7,22.3 -34.1,22.1 -34,22.6 -34.2,23.2 -33.7,22.9 -33.2,23.1 -33.4,22.6 "/>
<polygon class="st0" points="-15.7,31.7 -16.3,31.9 -16.8,31.8 -16.6,32.2 -16.9,32.8 -16.3,32.5 -15.9,32.7 -16,32.2 "/>
<polygon class="st0" points="41.6,30.3 41,30.5 40.6,30.3 40.7,30.8 40.4,31.3 41,31.1 41.5,31.3 41.3,30.8 "/>
<polygon class="st0" points="26.8,51.9 26.3,52.1 25.8,51.9 26,52.4 25.7,52.9 26.3,52.7 26.7,52.9 26.6,52.4 "/>
<polygon class="st0" points="41.9,48.4 41.5,48.1 41.5,47.8 41.2,48 40.8,48 41.1,48.3 41.1,48.7 41.4,48.4 "/>
</svg>
